<?xml version="1.0" encoding="UTF-8" standalone="no"?>
<!-- Created with Inkscape (http://www.inkscape.org/) -->

<svg
   version="1.1"
   id="svg2"
   width="377.94666"
   height="377.94666"
   viewBox="0 0 377.94666 377.94666"
   sodipodi:docname="20180216_LWZO_Logo.eps"
   xmlns:inkscape="http://www.inkscape.org/namespaces/inkscape"
   xmlns:sodipodi="http://sodipodi.sourceforge.net/DTD/sodipodi-0.dtd"
   xmlns="http://www.w3.org/2000/svg"
   xmlns:svg="http://www.w3.org/2000/svg">
  <defs
     id="defs6" />
  <sodipodi:namedview
     id="namedview4"
     pagecolor="#ffffff"
     bordercolor="#000000"
     borderopacity="0.25"
     inkscape:showpageshadow="2"
     inkscape:pageopacity="0.0"
     inkscape:pagecheckerboard="0"
     inkscape:deskcolor="#d1d1d1" />
  <g
     id="g8"
     inkscape:groupmode="layer"
     inkscape:label="ink_ext_XXXXXX"
     transform="matrix(1.3333333,0,0,-1.3333333,0,377.94667)">
    <g
       id="g10"
       transform="scale(0.1)">
      <path
         d="m 2122.76,2692.63 -736.99,-1416.26 396.21,-148.36 738.79,1419.7 -398.01,144.92 z M 1324.17,741.75 c -42.82,13.199 -86.59,19.18 -129.32,19.18 -136.22,-0.989 -272.096,-58.7 -341.569,-184.219 -21.277,-39.551 -32.218,-83.52 -32.191,-126.512 1,-138.847 105.414,-248.801 240.8,-289.277 42.89,-13.121 86.56,-19.192 129.44,-19.192 136.2,1.18 272.05,58.622 341.59,184.161 l 0.2,0.308 c 20.94,39.403 31.96,83.153 31.81,126.301 -0.92,138.801 -105.19,248.871 -240.76,289.25 v 0"
         style="fill:#00adef;fill-opacity:1;fill-rule:nonzero;stroke:none"
         id="path12" />
      <path
         d="m 2000.24,637.621 -218.26,490.389 -510.2,190.98 c -6.72,3.23 -32.79,16.7 -51.55,35.12 -11.04,10.37 -19.94,21.82 -26.11,34.28 -6.14,12.6 -10.45,26.2 -10.63,47.3 0.04,16.58 2.97,38.03 13.17,66.78 l 115.22,294.66 0.87,2.11 0.82,2.26 c 3.66,11.42 28.63,79.85 29.07,179.55 -0.21,68.64 -12.17,154.86 -64.31,243.33 -19.52,32.83 -44.94,65.66 -76.38,95.97 -10.46,10.11 -21.64,19.95 -33.51,29.44 -35.41,28.56 -76.73,53.7 -122.66,74.48 -15.32,6.92 -31.11,13.35 -47.428,19.25 -9.387,3.48 -18.555,6.78 -27.395,10.03 -132.781,48.32 -201.293,73.23 -236.687,86.13 -9.973,3.63 -17.122,6.28 -22.508,8.21 -15.028,5.5 -15.106,5.5 -15.168,5.54 l -382.711,139.48 216.082,-485.48 c 0.086,0 0.148,-0.07 0.578,-0.14 1.371,-0.52 7.727,-2.88 37.246,-13.62 32.969,-12.03 94.863,-34.49 210.899,-76.74 16.578,-6.01 34.324,-12.51 53.121,-19.25 22.402,-8.29 35.046,-16.24 43.937,-23.34 12.809,-10.59 19.762,-20.44 26.106,-36.18 6.191,-15.33 9.574,-36.14 9.449,-57.11 0.062,-20.16 -2.922,-40.09 -5.856,-53.3 -1.461,-6.61 -2.8,-11.6 -3.593,-14.21 -0.067,-0.11 -0.067,-0.2 -0.067,-0.4 l -114.297,-291.99 -0.769,-1.95 -0.672,-1.89 c -5.699,-15.62 -10.656,-31.16 -14.899,-46.46 -12.765,-46.31 -18.996,-91.59 -18.996,-135.16 -0.089,-50.19 8.43,-97.72 23.016,-140.81 8.742,-25.91 19.668,-50.24 32.145,-72.66 50.21,-90.38 121.292,-149.61 177.984,-187.29 57.203,-37.7 102.263,-55.141 113.703,-59.461 l 901.24,-337.848 v 0"
         style="fill:#231f20;fill-opacity:1;fill-rule:nonzero;stroke:none"
         id="path14" />
    </g>
  </g>
</svg>
